<mxfile host="app.diagrams.net" agent="Mozilla/5.0 (Windows NT 10.0; Win64; x64; rv:136.0) Gecko/20100101 Firefox/136.0" version="26.0.5">
  <diagram id="C5RBs43oDa-KdzZeNtuy" name="Page-1">
    <mxGraphModel dx="1728" dy="945" grid="0" gridSize="10" guides="1" tooltips="1" connect="1" arrows="1" fold="1" page="1" pageScale="1" pageWidth="827" pageHeight="1169" math="0" shadow="0">
      <root>
        <mxCell id="WIyWlLk6GJQsqaUBKTNV-0" />
        <mxCell id="WIyWlLk6GJQsqaUBKTNV-1" parent="WIyWlLk6GJQsqaUBKTNV-0" />
        <mxCell id="_hwv9tR_E8vKDguACiTg-63" value="" style="rounded=0;whiteSpace=wrap;html=1;" parent="WIyWlLk6GJQsqaUBKTNV-1" vertex="1">
          <mxGeometry x="521" y="83" width="301" height="597" as="geometry" />
        </mxCell>
        <mxCell id="_hwv9tR_E8vKDguACiTg-7" value="&lt;div&gt;&lt;font style=&quot;font-size: 13px;&quot;&gt;Initialisierung&lt;/font&gt;&lt;/div&gt;&lt;div&gt;&lt;font style=&quot;font-size: 13px;&quot;&gt;der Sensoren&lt;/font&gt;&lt;/div&gt;" style="rounded=1;whiteSpace=wrap;html=1;" parent="WIyWlLk6GJQsqaUBKTNV-1" vertex="1">
          <mxGeometry x="692.5" y="93" width="89" height="45" as="geometry" />
        </mxCell>
        <mxCell id="_hwv9tR_E8vKDguACiTg-9" value="&lt;div&gt;stelle I2C mit&lt;/div&gt;&lt;div&gt;ToF Sensoren her&lt;/div&gt;" style="rhombus;whiteSpace=wrap;html=1;" parent="WIyWlLk6GJQsqaUBKTNV-1" vertex="1">
          <mxGeometry x="665.5" y="207" width="143" height="70" as="geometry" />
        </mxCell>
        <mxCell id="_hwv9tR_E8vKDguACiTg-13" value="&lt;font style=&quot;font-size: 13px;&quot;&gt;sende Fehlercode&lt;/font&gt;" style="shape=parallelogram;perimeter=parallelogramPerimeter;whiteSpace=wrap;html=1;fixedSize=1;" parent="WIyWlLk6GJQsqaUBKTNV-1" vertex="1">
          <mxGeometry x="532" y="631" width="131" height="40" as="geometry" />
        </mxCell>
        <mxCell id="_hwv9tR_E8vKDguACiTg-15" value="&lt;div&gt;&lt;font style=&quot;font-size: 13px;&quot;&gt;stelle I2C mit&lt;/font&gt;&lt;/div&gt;&lt;div&gt;&lt;font style=&quot;font-size: 13px;&quot;&gt;INA226 her&lt;/font&gt;&lt;/div&gt;" style="rhombus;whiteSpace=wrap;html=1;" parent="WIyWlLk6GJQsqaUBKTNV-1" vertex="1">
          <mxGeometry x="663" y="309" width="148" height="53.12" as="geometry" />
        </mxCell>
        <mxCell id="_hwv9tR_E8vKDguACiTg-29" style="edgeStyle=orthogonalEdgeStyle;rounded=0;orthogonalLoop=1;jettySize=auto;html=1;exitX=0.5;exitY=1;exitDx=0;exitDy=0;entryX=0.5;entryY=0;entryDx=0;entryDy=0;" parent="WIyWlLk6GJQsqaUBKTNV-1" source="_hwv9tR_E8vKDguACiTg-16" target="_hwv9tR_E8vKDguACiTg-27" edge="1">
          <mxGeometry relative="1" as="geometry" />
        </mxCell>
        <mxCell id="_hwv9tR_E8vKDguACiTg-16" value="&lt;div&gt;&lt;font style=&quot;font-size: 13px;&quot;&gt;stelle I2C mit&lt;/font&gt;&lt;/div&gt;&lt;div&gt;&lt;font style=&quot;font-size: 13px;&quot;&gt;IMU her&lt;/font&gt;&lt;/div&gt;" style="rhombus;whiteSpace=wrap;html=1;" parent="WIyWlLk6GJQsqaUBKTNV-1" vertex="1">
          <mxGeometry x="663" y="411" width="148" height="53.12" as="geometry" />
        </mxCell>
        <mxCell id="_hwv9tR_E8vKDguACiTg-0" value="&lt;font style=&quot;font-size: 29px;&quot;&gt;ESP 32 Code-Diagramm&lt;/font&gt;" style="text;html=1;align=center;verticalAlign=middle;whiteSpace=wrap;rounded=0;fontSize=21;" parent="WIyWlLk6GJQsqaUBKTNV-1" vertex="1">
          <mxGeometry x="292" y="38" width="243" height="30" as="geometry" />
        </mxCell>
        <mxCell id="_hwv9tR_E8vKDguACiTg-4" style="edgeStyle=orthogonalEdgeStyle;rounded=0;orthogonalLoop=1;jettySize=auto;html=1;exitX=0.5;exitY=1;exitDx=0;exitDy=0;entryX=0.5;entryY=0;entryDx=0;entryDy=0;" parent="WIyWlLk6GJQsqaUBKTNV-1" source="_hwv9tR_E8vKDguACiTg-2" target="_hwv9tR_E8vKDguACiTg-3" edge="1">
          <mxGeometry relative="1" as="geometry" />
        </mxCell>
        <mxCell id="_hwv9tR_E8vKDguACiTg-2" value="&lt;font style=&quot;font-size: 15px;&quot;&gt;Start&lt;/font&gt;" style="rounded=1;whiteSpace=wrap;html=1;" parent="WIyWlLk6GJQsqaUBKTNV-1" vertex="1">
          <mxGeometry x="152.5" y="118" width="120" height="60" as="geometry" />
        </mxCell>
        <mxCell id="sx8V6jigU9jlCn_8tGGP-2" style="edgeStyle=orthogonalEdgeStyle;rounded=0;orthogonalLoop=1;jettySize=auto;html=1;exitX=0.5;exitY=1;exitDx=0;exitDy=0;entryX=0.5;entryY=0;entryDx=0;entryDy=0;" parent="WIyWlLk6GJQsqaUBKTNV-1" source="_hwv9tR_E8vKDguACiTg-3" target="sx8V6jigU9jlCn_8tGGP-0" edge="1">
          <mxGeometry relative="1" as="geometry" />
        </mxCell>
        <mxCell id="_hwv9tR_E8vKDguACiTg-3" value="&lt;div&gt;&lt;font style=&quot;font-size: 13px;&quot;&gt;VerzÃ¶gerung bis&lt;/font&gt;&lt;/div&gt;&lt;div&gt;&lt;font style=&quot;font-size: 13px;&quot;&gt;Jetson hochgefahren ist&lt;/font&gt;&lt;/div&gt;" style="rounded=0;whiteSpace=wrap;html=1;" parent="WIyWlLk6GJQsqaUBKTNV-1" vertex="1">
          <mxGeometry x="122" y="235" width="181" height="60" as="geometry" />
        </mxCell>
        <mxCell id="_hwv9tR_E8vKDguACiTg-58" style="edgeStyle=orthogonalEdgeStyle;rounded=0;orthogonalLoop=1;jettySize=auto;html=1;exitX=1;exitY=0.5;exitDx=0;exitDy=0;entryX=0;entryY=0.5;entryDx=0;entryDy=0;" parent="WIyWlLk6GJQsqaUBKTNV-1" source="_hwv9tR_E8vKDguACiTg-5" target="_hwv9tR_E8vKDguACiTg-57" edge="1">
          <mxGeometry relative="1" as="geometry" />
        </mxCell>
        <mxCell id="_hwv9tR_E8vKDguACiTg-68" style="edgeStyle=orthogonalEdgeStyle;rounded=0;orthogonalLoop=1;jettySize=auto;html=1;exitX=0.5;exitY=1;exitDx=0;exitDy=0;entryX=0.5;entryY=0;entryDx=0;entryDy=0;" parent="WIyWlLk6GJQsqaUBKTNV-1" source="_hwv9tR_E8vKDguACiTg-5" target="_hwv9tR_E8vKDguACiTg-64" edge="1">
          <mxGeometry relative="1" as="geometry" />
        </mxCell>
        <mxCell id="_hwv9tR_E8vKDguACiTg-5" value="&lt;div&gt;&lt;font style=&quot;font-size: 13px;&quot;&gt;Initialisierung der Sensoren&lt;/font&gt;&lt;/div&gt;&lt;div&gt;&lt;font style=&quot;font-size: 13px;&quot;&gt;erfolgreich?&lt;/font&gt;&lt;/div&gt;" style="shape=process;whiteSpace=wrap;html=1;backgroundOutline=1;fontSize=9;" parent="WIyWlLk6GJQsqaUBKTNV-1" vertex="1">
          <mxGeometry x="124.25" y="583.44" width="174" height="60" as="geometry" />
        </mxCell>
        <mxCell id="_hwv9tR_E8vKDguACiTg-11" style="edgeStyle=orthogonalEdgeStyle;rounded=0;orthogonalLoop=1;jettySize=auto;html=1;exitX=0.5;exitY=1;exitDx=0;exitDy=0;entryX=0.5;entryY=0;entryDx=0;entryDy=0;" parent="WIyWlLk6GJQsqaUBKTNV-1" source="_hwv9tR_E8vKDguACiTg-7" target="_hwv9tR_E8vKDguACiTg-9" edge="1">
          <mxGeometry relative="1" as="geometry" />
        </mxCell>
        <mxCell id="_hwv9tR_E8vKDguACiTg-12" style="edgeStyle=orthogonalEdgeStyle;rounded=0;orthogonalLoop=1;jettySize=auto;html=1;exitX=0;exitY=0.5;exitDx=0;exitDy=0;entryX=0.5;entryY=0;entryDx=0;entryDy=0;" parent="WIyWlLk6GJQsqaUBKTNV-1" source="_hwv9tR_E8vKDguACiTg-9" target="_hwv9tR_E8vKDguACiTg-13" edge="1">
          <mxGeometry relative="1" as="geometry">
            <mxPoint x="520.9655172413793" y="582.2068965517242" as="targetPoint" />
          </mxGeometry>
        </mxCell>
        <mxCell id="_hwv9tR_E8vKDguACiTg-17" style="edgeStyle=orthogonalEdgeStyle;rounded=0;orthogonalLoop=1;jettySize=auto;html=1;exitX=0.5;exitY=1;exitDx=0;exitDy=0;entryX=0.5;entryY=0;entryDx=0;entryDy=0;" parent="WIyWlLk6GJQsqaUBKTNV-1" source="_hwv9tR_E8vKDguACiTg-9" target="_hwv9tR_E8vKDguACiTg-15" edge="1">
          <mxGeometry relative="1" as="geometry" />
        </mxCell>
        <mxCell id="_hwv9tR_E8vKDguACiTg-14" value="fehlgeschlagen" style="text;html=1;align=center;verticalAlign=middle;resizable=0;points=[];autosize=1;strokeColor=none;fillColor=none;" parent="WIyWlLk6GJQsqaUBKTNV-1" vertex="1">
          <mxGeometry x="588" y="215" width="99" height="26" as="geometry" />
        </mxCell>
        <mxCell id="_hwv9tR_E8vKDguACiTg-18" style="edgeStyle=orthogonalEdgeStyle;rounded=0;orthogonalLoop=1;jettySize=auto;html=1;exitX=0.5;exitY=1;exitDx=0;exitDy=0;entryX=0.5;entryY=0;entryDx=0;entryDy=0;" parent="WIyWlLk6GJQsqaUBKTNV-1" source="_hwv9tR_E8vKDguACiTg-15" target="_hwv9tR_E8vKDguACiTg-16" edge="1">
          <mxGeometry relative="1" as="geometry" />
        </mxCell>
        <mxCell id="_hwv9tR_E8vKDguACiTg-21" style="edgeStyle=orthogonalEdgeStyle;rounded=0;orthogonalLoop=1;jettySize=auto;html=1;exitX=0;exitY=0.5;exitDx=0;exitDy=0;entryX=0.5;entryY=0;entryDx=0;entryDy=0;" parent="WIyWlLk6GJQsqaUBKTNV-1" source="_hwv9tR_E8vKDguACiTg-15" target="_hwv9tR_E8vKDguACiTg-13" edge="1">
          <mxGeometry relative="1" as="geometry" />
        </mxCell>
        <mxCell id="_hwv9tR_E8vKDguACiTg-22" style="edgeStyle=orthogonalEdgeStyle;rounded=0;orthogonalLoop=1;jettySize=auto;html=1;exitX=0;exitY=0.5;exitDx=0;exitDy=0;entryX=0.5;entryY=0;entryDx=0;entryDy=0;" parent="WIyWlLk6GJQsqaUBKTNV-1" source="_hwv9tR_E8vKDguACiTg-16" target="_hwv9tR_E8vKDguACiTg-13" edge="1">
          <mxGeometry relative="1" as="geometry" />
        </mxCell>
        <mxCell id="_hwv9tR_E8vKDguACiTg-25" value="fehlgeschlagen" style="text;html=1;align=center;verticalAlign=middle;resizable=0;points=[];autosize=1;strokeColor=none;fillColor=none;" parent="WIyWlLk6GJQsqaUBKTNV-1" vertex="1">
          <mxGeometry x="590" y="309" width="99" height="26" as="geometry" />
        </mxCell>
        <mxCell id="_hwv9tR_E8vKDguACiTg-26" value="fehlgeschlagen" style="text;html=1;align=center;verticalAlign=middle;resizable=0;points=[];autosize=1;strokeColor=none;fillColor=none;" parent="WIyWlLk6GJQsqaUBKTNV-1" vertex="1">
          <mxGeometry x="590" y="411" width="99" height="26" as="geometry" />
        </mxCell>
        <mxCell id="_hwv9tR_E8vKDguACiTg-30" style="edgeStyle=orthogonalEdgeStyle;rounded=0;orthogonalLoop=1;jettySize=auto;html=1;exitX=0;exitY=0.5;exitDx=0;exitDy=0;" parent="WIyWlLk6GJQsqaUBKTNV-1" source="_hwv9tR_E8vKDguACiTg-27" target="_hwv9tR_E8vKDguACiTg-13" edge="1">
          <mxGeometry relative="1" as="geometry" />
        </mxCell>
        <mxCell id="_hwv9tR_E8vKDguACiTg-33" style="edgeStyle=orthogonalEdgeStyle;rounded=0;orthogonalLoop=1;jettySize=auto;html=1;exitX=0.5;exitY=1;exitDx=0;exitDy=0;entryX=0.5;entryY=0;entryDx=0;entryDy=0;" parent="WIyWlLk6GJQsqaUBKTNV-1" source="_hwv9tR_E8vKDguACiTg-27" target="_hwv9tR_E8vKDguACiTg-32" edge="1">
          <mxGeometry relative="1" as="geometry" />
        </mxCell>
        <mxCell id="_hwv9tR_E8vKDguACiTg-27" value="&lt;div&gt;&lt;font style=&quot;font-size: 13px;&quot;&gt;teste HC-SR04&lt;/font&gt;&lt;/div&gt;&lt;div&gt;&lt;font style=&quot;font-size: 13px;&quot;&gt;Sensoren&lt;/font&gt;&lt;/div&gt;" style="rhombus;whiteSpace=wrap;html=1;" parent="WIyWlLk6GJQsqaUBKTNV-1" vertex="1">
          <mxGeometry x="663" y="521" width="148" height="53.12" as="geometry" />
        </mxCell>
        <mxCell id="_hwv9tR_E8vKDguACiTg-31" value="fehlgeschlagen" style="text;html=1;align=center;verticalAlign=middle;resizable=0;points=[];autosize=1;strokeColor=none;fillColor=none;" parent="WIyWlLk6GJQsqaUBKTNV-1" vertex="1">
          <mxGeometry x="590" y="521" width="99" height="26" as="geometry" />
        </mxCell>
        <mxCell id="_hwv9tR_E8vKDguACiTg-32" value="&lt;font style=&quot;font-size: 13px;&quot;&gt;sende Erfolg&lt;/font&gt;" style="shape=parallelogram;perimeter=parallelogramPerimeter;whiteSpace=wrap;html=1;fixedSize=1;" parent="WIyWlLk6GJQsqaUBKTNV-1" vertex="1">
          <mxGeometry x="655" y="631" width="164" height="40" as="geometry" />
        </mxCell>
        <mxCell id="_hwv9tR_E8vKDguACiTg-35" value="erfolgreich" style="text;html=1;align=center;verticalAlign=middle;resizable=0;points=[];autosize=1;strokeColor=none;fillColor=none;" parent="WIyWlLk6GJQsqaUBKTNV-1" vertex="1">
          <mxGeometry x="665.5" y="277" width="74" height="26" as="geometry" />
        </mxCell>
        <mxCell id="_hwv9tR_E8vKDguACiTg-36" value="erfolgreich" style="text;html=1;align=center;verticalAlign=middle;resizable=0;points=[];autosize=1;strokeColor=none;fillColor=none;" parent="WIyWlLk6GJQsqaUBKTNV-1" vertex="1">
          <mxGeometry x="668" y="374" width="74" height="26" as="geometry" />
        </mxCell>
        <mxCell id="_hwv9tR_E8vKDguACiTg-37" value="erfolgreich" style="text;html=1;align=center;verticalAlign=middle;resizable=0;points=[];autosize=1;strokeColor=none;fillColor=none;" parent="WIyWlLk6GJQsqaUBKTNV-1" vertex="1">
          <mxGeometry x="668" y="479" width="74" height="26" as="geometry" />
        </mxCell>
        <mxCell id="_hwv9tR_E8vKDguACiTg-38" value="erfolgreich" style="text;html=1;align=center;verticalAlign=middle;resizable=0;points=[];autosize=1;strokeColor=none;fillColor=none;" parent="WIyWlLk6GJQsqaUBKTNV-1" vertex="1">
          <mxGeometry x="668" y="589.44" width="74" height="26" as="geometry" />
        </mxCell>
        <mxCell id="AWHjEYZcNrm2FN0k45G1-0" style="edgeStyle=orthogonalEdgeStyle;rounded=0;orthogonalLoop=1;jettySize=auto;html=1;exitX=0.5;exitY=1;exitDx=0;exitDy=0;entryX=0.5;entryY=0;entryDx=0;entryDy=0;" edge="1" parent="WIyWlLk6GJQsqaUBKTNV-1" source="_hwv9tR_E8vKDguACiTg-39" target="_hwv9tR_E8vKDguACiTg-5">
          <mxGeometry relative="1" as="geometry" />
        </mxCell>
        <mxCell id="_hwv9tR_E8vKDguACiTg-39" value="&lt;div&gt;&lt;font style=&quot;font-size: 13px;&quot;&gt;UART mit Jetson&lt;/font&gt;&lt;/div&gt;&lt;div&gt;&lt;font style=&quot;font-size: 13px;&quot;&gt;erfolgreich?&lt;/font&gt;&lt;/div&gt;" style="rhombus;whiteSpace=wrap;html=1;" parent="WIyWlLk6GJQsqaUBKTNV-1" vertex="1">
          <mxGeometry x="131.12" y="444" width="160.25" height="77" as="geometry" />
        </mxCell>
        <mxCell id="_hwv9tR_E8vKDguACiTg-54" style="edgeStyle=orthogonalEdgeStyle;rounded=0;orthogonalLoop=1;jettySize=auto;html=1;exitX=1;exitY=0.5;exitDx=0;exitDy=0;entryX=0.5;entryY=0;entryDx=0;entryDy=0;" parent="WIyWlLk6GJQsqaUBKTNV-1" source="_hwv9tR_E8vKDguACiTg-39" target="_hwv9tR_E8vKDguACiTg-39" edge="1">
          <mxGeometry relative="1" as="geometry">
            <Array as="points">
              <mxPoint x="312.5" y="482" />
              <mxPoint x="312.5" y="437" />
              <mxPoint x="211.5" y="437" />
            </Array>
          </mxGeometry>
        </mxCell>
        <mxCell id="_hwv9tR_E8vKDguACiTg-55" value="Nein" style="text;html=1;align=center;verticalAlign=middle;resizable=0;points=[];autosize=1;strokeColor=none;fillColor=none;" parent="WIyWlLk6GJQsqaUBKTNV-1" vertex="1">
          <mxGeometry x="263.5" y="455" width="43" height="26" as="geometry" />
        </mxCell>
        <mxCell id="_hwv9tR_E8vKDguACiTg-62" style="edgeStyle=orthogonalEdgeStyle;rounded=0;orthogonalLoop=1;jettySize=auto;html=1;exitX=0.5;exitY=1;exitDx=0;exitDy=0;entryX=0.5;entryY=0;entryDx=0;entryDy=0;" parent="WIyWlLk6GJQsqaUBKTNV-1" source="_hwv9tR_E8vKDguACiTg-57" target="_hwv9tR_E8vKDguACiTg-59" edge="1">
          <mxGeometry relative="1" as="geometry" />
        </mxCell>
        <mxCell id="_hwv9tR_E8vKDguACiTg-57" value="&lt;div&gt;&lt;font style=&quot;font-size: 13px;&quot;&gt;sende Fehlercode an&lt;/font&gt;&lt;/div&gt;&lt;div&gt;&lt;font style=&quot;font-size: 13px;&quot;&gt;Jetson&lt;/font&gt;&lt;/div&gt;" style="shape=parallelogram;perimeter=parallelogramPerimeter;whiteSpace=wrap;html=1;fixedSize=1;fontSize=9;" parent="WIyWlLk6GJQsqaUBKTNV-1" vertex="1">
          <mxGeometry x="346.75" y="583.44" width="153" height="60" as="geometry" />
        </mxCell>
        <mxCell id="_hwv9tR_E8vKDguACiTg-73" style="edgeStyle=orthogonalEdgeStyle;rounded=0;orthogonalLoop=1;jettySize=auto;html=1;exitX=0.5;exitY=1;exitDx=0;exitDy=0;entryX=0.5;entryY=0;entryDx=0;entryDy=0;" parent="WIyWlLk6GJQsqaUBKTNV-1" source="_hwv9tR_E8vKDguACiTg-59" target="_hwv9tR_E8vKDguACiTg-69" edge="1">
          <mxGeometry relative="1" as="geometry">
            <Array as="points">
              <mxPoint x="416.75" y="773.44" />
              <mxPoint x="211.75" y="773.44" />
            </Array>
          </mxGeometry>
        </mxCell>
        <mxCell id="_hwv9tR_E8vKDguACiTg-59" value="&lt;div&gt;&lt;font style=&quot;font-size: 13px;&quot;&gt;Erlaubnis von Jetson &lt;br&gt;&lt;/font&gt;&lt;/div&gt;&lt;div&gt;&lt;font style=&quot;font-size: 13px;&quot;&gt;fÃ¼r das Fortfahren&lt;/font&gt;&lt;/div&gt;" style="rhombus;whiteSpace=wrap;html=1;fontSize=9;" parent="WIyWlLk6GJQsqaUBKTNV-1" vertex="1">
          <mxGeometry x="324" y="664" width="185.25" height="92.56" as="geometry" />
        </mxCell>
        <mxCell id="_hwv9tR_E8vKDguACiTg-71" style="edgeStyle=orthogonalEdgeStyle;rounded=0;orthogonalLoop=1;jettySize=auto;html=1;exitX=0.5;exitY=1;exitDx=0;exitDy=0;entryX=0.5;entryY=0;entryDx=0;entryDy=0;" parent="WIyWlLk6GJQsqaUBKTNV-1" source="_hwv9tR_E8vKDguACiTg-64" target="_hwv9tR_E8vKDguACiTg-69" edge="1">
          <mxGeometry relative="1" as="geometry" />
        </mxCell>
        <mxCell id="_hwv9tR_E8vKDguACiTg-64" value="&lt;div&gt;&lt;font style=&quot;font-size: 12px;&quot;&gt;Sende Erfolg der Initialisierung&lt;/font&gt;&lt;/div&gt;&lt;div&gt;&lt;font style=&quot;font-size: 12px;&quot;&gt;an Jetson&lt;/font&gt;&lt;/div&gt;" style="shape=parallelogram;perimeter=parallelogramPerimeter;whiteSpace=wrap;html=1;fixedSize=1;fontSize=9;" parent="WIyWlLk6GJQsqaUBKTNV-1" vertex="1">
          <mxGeometry x="115.25" y="692.44" width="192" height="60" as="geometry" />
        </mxCell>
        <mxCell id="_hwv9tR_E8vKDguACiTg-65" value="&lt;font style=&quot;font-size: 12px;&quot;&gt;Nein&lt;/font&gt;" style="text;html=1;align=center;verticalAlign=middle;resizable=0;points=[];autosize=1;strokeColor=none;fillColor=none;fontSize=9;" parent="WIyWlLk6GJQsqaUBKTNV-1" vertex="1">
          <mxGeometry x="311.75" y="589.44" width="43" height="26" as="geometry" />
        </mxCell>
        <mxCell id="7mVsBppxYRM3f-fTi8ju-1" style="edgeStyle=orthogonalEdgeStyle;rounded=0;orthogonalLoop=1;jettySize=auto;html=1;exitX=0.5;exitY=1;exitDx=0;exitDy=0;entryX=0.5;entryY=0;entryDx=0;entryDy=0;" parent="WIyWlLk6GJQsqaUBKTNV-1" source="_hwv9tR_E8vKDguACiTg-69" target="7mVsBppxYRM3f-fTi8ju-0" edge="1">
          <mxGeometry relative="1" as="geometry" />
        </mxCell>
        <mxCell id="_hwv9tR_E8vKDguACiTg-69" value="&lt;font style=&quot;font-size: 13px;&quot;&gt;Auslesen der Sensoren&lt;/font&gt;" style="rounded=0;whiteSpace=wrap;html=1;" parent="WIyWlLk6GJQsqaUBKTNV-1" vertex="1">
          <mxGeometry x="151.25" y="804" width="120" height="60" as="geometry" />
        </mxCell>
        <mxCell id="_hwv9tR_E8vKDguACiTg-70" value="&lt;div&gt;&lt;font style=&quot;font-size: 13px;&quot;&gt;sende Daten Ã¼ber UART&lt;/font&gt;&lt;/div&gt;&lt;div&gt;&lt;font style=&quot;font-size: 13px;&quot;&gt;an Jetson&lt;/font&gt;&lt;/div&gt;" style="shape=parallelogram;perimeter=parallelogramPerimeter;whiteSpace=wrap;html=1;fixedSize=1;" parent="WIyWlLk6GJQsqaUBKTNV-1" vertex="1">
          <mxGeometry x="111" y="984" width="202" height="60" as="geometry" />
        </mxCell>
        <mxCell id="_hwv9tR_E8vKDguACiTg-72" value="Ja" style="text;html=1;align=center;verticalAlign=middle;resizable=0;points=[];autosize=1;strokeColor=none;fillColor=none;" parent="WIyWlLk6GJQsqaUBKTNV-1" vertex="1">
          <mxGeometry x="177.25" y="655.44" width="31" height="26" as="geometry" />
        </mxCell>
        <mxCell id="_hwv9tR_E8vKDguACiTg-75" value="" style="endArrow=classic;html=1;rounded=0;exitX=1;exitY=0.5;exitDx=0;exitDy=0;entryX=0.5;entryY=0;entryDx=0;entryDy=0;" parent="WIyWlLk6GJQsqaUBKTNV-1" source="_hwv9tR_E8vKDguACiTg-70" target="_hwv9tR_E8vKDguACiTg-69" edge="1">
          <mxGeometry width="50" height="50" relative="1" as="geometry">
            <mxPoint x="408.75" y="912.44" as="sourcePoint" />
            <mxPoint x="211.75" y="793.44" as="targetPoint" />
            <Array as="points">
              <mxPoint x="412.25" y="1013" />
              <mxPoint x="411.75" y="790.44" />
              <mxPoint x="211.75" y="790.44" />
            </Array>
          </mxGeometry>
        </mxCell>
        <mxCell id="_hwv9tR_E8vKDguACiTg-76" value="&lt;div&gt;&lt;font&gt;unendliche&lt;/font&gt;&lt;/div&gt;&lt;div&gt;&lt;font&gt;Schleife&lt;/font&gt;&lt;/div&gt;" style="text;html=1;align=center;verticalAlign=middle;resizable=0;points=[];autosize=1;strokeColor=none;fillColor=none;" parent="WIyWlLk6GJQsqaUBKTNV-1" vertex="1">
          <mxGeometry x="335" y="791" width="76" height="41" as="geometry" />
        </mxCell>
        <mxCell id="sx8V6jigU9jlCn_8tGGP-1" style="edgeStyle=orthogonalEdgeStyle;rounded=0;orthogonalLoop=1;jettySize=auto;html=1;exitX=0.5;exitY=1;exitDx=0;exitDy=0;entryX=0.5;entryY=0;entryDx=0;entryDy=0;" parent="WIyWlLk6GJQsqaUBKTNV-1" source="sx8V6jigU9jlCn_8tGGP-0" target="_hwv9tR_E8vKDguACiTg-39" edge="1">
          <mxGeometry relative="1" as="geometry" />
        </mxCell>
        <mxCell id="sx8V6jigU9jlCn_8tGGP-0" value="&lt;div&gt;&lt;font style=&quot;font-size: 13px;&quot;&gt;Initialisierung der&lt;/font&gt;&lt;/div&gt;&lt;div&gt;&lt;font style=&quot;font-size: 13px;&quot;&gt;Libraries&lt;/font&gt;&lt;/div&gt;" style="rounded=0;whiteSpace=wrap;html=1;" parent="WIyWlLk6GJQsqaUBKTNV-1" vertex="1">
          <mxGeometry x="152" y="335" width="120" height="60" as="geometry" />
        </mxCell>
        <mxCell id="7mVsBppxYRM3f-fTi8ju-2" style="edgeStyle=orthogonalEdgeStyle;rounded=0;orthogonalLoop=1;jettySize=auto;html=1;exitX=0.5;exitY=1;exitDx=0;exitDy=0;entryX=0.5;entryY=0;entryDx=0;entryDy=0;" parent="WIyWlLk6GJQsqaUBKTNV-1" source="7mVsBppxYRM3f-fTi8ju-0" target="_hwv9tR_E8vKDguACiTg-70" edge="1">
          <mxGeometry relative="1" as="geometry" />
        </mxCell>
        <mxCell id="7mVsBppxYRM3f-fTi8ju-4" value="&lt;font style=&quot;font-size: 12px;&quot;&gt;Nein&lt;/font&gt;" style="edgeLabel;html=1;align=center;verticalAlign=middle;resizable=0;points=[];" parent="7mVsBppxYRM3f-fTi8ju-2" vertex="1" connectable="0">
          <mxGeometry x="-0.1647" y="-1" relative="1" as="geometry">
            <mxPoint x="-14" y="6" as="offset" />
          </mxGeometry>
        </mxCell>
        <mxCell id="7mVsBppxYRM3f-fTi8ju-5" style="edgeStyle=orthogonalEdgeStyle;rounded=0;orthogonalLoop=1;jettySize=auto;html=1;exitX=1;exitY=0.5;exitDx=0;exitDy=0;entryX=0;entryY=0.5;entryDx=0;entryDy=0;fontSize=12;" parent="WIyWlLk6GJQsqaUBKTNV-1" source="7mVsBppxYRM3f-fTi8ju-0" target="7mVsBppxYRM3f-fTi8ju-3" edge="1">
          <mxGeometry relative="1" as="geometry" />
        </mxCell>
        <mxCell id="7mVsBppxYRM3f-fTi8ju-7" value="Ja" style="edgeLabel;html=1;align=center;verticalAlign=middle;resizable=0;points=[];fontSize=12;" parent="7mVsBppxYRM3f-fTi8ju-5" vertex="1" connectable="0">
          <mxGeometry x="-0.2888" y="2" relative="1" as="geometry">
            <mxPoint x="1" y="-7" as="offset" />
          </mxGeometry>
        </mxCell>
        <mxCell id="7mVsBppxYRM3f-fTi8ju-0" value="&lt;div&gt;&lt;font style=&quot;font-size: 13px;&quot;&gt;niedrige&lt;/font&gt;&lt;/div&gt;&lt;div&gt;&lt;font style=&quot;font-size: 13px;&quot;&gt;Spannung?&lt;/font&gt;&lt;/div&gt;" style="rhombus;whiteSpace=wrap;html=1;" parent="WIyWlLk6GJQsqaUBKTNV-1" vertex="1">
          <mxGeometry x="148.88" y="882" width="127.25" height="54" as="geometry" />
        </mxCell>
        <mxCell id="7mVsBppxYRM3f-fTi8ju-6" style="edgeStyle=orthogonalEdgeStyle;rounded=0;orthogonalLoop=1;jettySize=auto;html=1;exitX=0.5;exitY=1;exitDx=0;exitDy=0;entryX=0.5;entryY=0;entryDx=0;entryDy=0;" parent="WIyWlLk6GJQsqaUBKTNV-1" source="7mVsBppxYRM3f-fTi8ju-3" target="_hwv9tR_E8vKDguACiTg-70" edge="1">
          <mxGeometry relative="1" as="geometry" />
        </mxCell>
        <mxCell id="7mVsBppxYRM3f-fTi8ju-3" value="&lt;div&gt;&lt;font style=&quot;font-size: 13px;&quot;&gt;spiele&lt;/font&gt;&lt;/div&gt;&lt;div&gt;&lt;font style=&quot;font-size: 13px;&quot;&gt;Warnton&lt;/font&gt;&lt;/div&gt;" style="shape=parallelogram;perimeter=parallelogramPerimeter;whiteSpace=wrap;html=1;fixedSize=1;" parent="WIyWlLk6GJQsqaUBKTNV-1" vertex="1">
          <mxGeometry x="303" y="888" width="90" height="30" as="geometry" />
        </mxCell>
        <mxCell id="AWHjEYZcNrm2FN0k45G1-1" value="Ja" style="text;html=1;align=center;verticalAlign=middle;resizable=0;points=[];autosize=1;strokeColor=none;fillColor=none;" vertex="1" parent="WIyWlLk6GJQsqaUBKTNV-1">
          <mxGeometry x="178.5" y="515" width="31" height="26" as="geometry" />
        </mxCell>
      </root>
    </mxGraphModel>
  </diagram>
</mxfile>
